<?xml version="1.0" encoding="UTF-8" standalone="no"?>
<svg
   width="16"
   height="16"
   fill="currentColor"
   class="bi bi-chat-dots"
   viewBox="0 0 16 16"
   version="1.1"
   id="svg2"
   sodipodi:docname="chat-dots.svg"
   inkscape:version="1.3.2 (091e20e, 2023-11-25, custom)"
   xmlns:inkscape="http://www.inkscape.org/namespaces/inkscape"
   xmlns:sodipodi="http://sodipodi.sourceforge.net/DTD/sodipodi-0.dtd"
   xmlns="http://www.w3.org/2000/svg"
   xmlns:svg="http://www.w3.org/2000/svg">
  <defs
     id="defs2" />
  <sodipodi:namedview
     id="namedview2"
     pagecolor="#ffffff"
     bordercolor="#000000"
     borderopacity="0.25"
     inkscape:showpageshadow="2"
     inkscape:pageopacity="0.0"
     inkscape:pagecheckerboard="0"
     inkscape:deskcolor="#d1d1d1"
     inkscape:zoom="49.1875"
     inkscape:cx="8"
     inkscape:cy="12.879288"
     inkscape:window-width="1920"
     inkscape:window-height="1001"
     inkscape:window-x="-9"
     inkscape:window-y="-9"
     inkscape:window-maximized="1"
     inkscape:current-layer="svg2" />
  <path
     d="M 7.8574219,7.0097656 A 1,1 0 0 0 7,8 1,1 0 0 0 9,8 1,1 0 0 0 7.8574219,7.0097656 Z"
     style="display:inline;fill:#583fbb;fill-opacity:1"
     id="path4" />
  <path
     d="m 12,7 a 1,1 0 0 0 0,2 1,1 0 0 0 0,-2 z"
     style="display:inline;fill:#25d366;fill-opacity:1"
     id="path3" />
  <path
     d="M 3.8574219,7.0097656 A 1,1 0 0 0 3,8 1,1 0 0 0 5,8 1,1 0 0 0 3.8574219,7.0097656 Z"
     style="display:inline;fill:#29a9eb;fill-opacity:1"
     id="path5" />
  <path
     d="m2.165 15.803.02-.004c1.83-.363 2.948-.842 3.468-1.105A9 9 0 0 0 8 15c4.418 0 8-3.134 8-7s-3.582-7-8-7-8 3.134-8 7c0 1.76.743 3.37 1.97 4.6a10.4 10.4 0 0 1-.524 2.318l-.003.011a11 11 0 0 1-.244.637c-.079.186.074.394.273.362a22 22 0 0 0 .693-.125m.8-3.108a1 1 0 0 0-.287-.801C1.618 10.83 1 9.468 1 8c0-3.192 3.004-6 7-6s7 2.808 7 6-3.004 6-7 6a8 8 0 0 1-2.088-.272 1 1 0 0 0-.711.074c-.387.196-1.24.57-2.634.893a11 11 0 0 0 .398-2"
     id="path2" />
</svg>
